<svg xmlns="http://www.w3.org/2000/svg" viewBox="0 0 512 512.01">
  <path fill="#60ad5e" d="M73.148 237.723h27.438v27.43H73.148zm0 0M73.148 320.012h27.438v27.426H73.148zm0 0M73.148 155.438h27.438v27.43H73.148zm0 0M274.29 91.438c5.05 0 9.144-4.094 9.144-9.141V45.723c0-5.047-4.094-9.141-9.145-9.141h-55.77a10.56 10.56 0 0 1-6.09-2.434 8.804 8.804 0 0 1-.859-.968 9.074 9.074 0 0 1-1.113-1.653 10.11 10.11 0 0 1-.516-1.308 9.781 9.781 0 0 1-.382-.969C206.082 12.227 191.105 0 173.727 0c-17.375 0-32.352 12.227-35.829 29.25-.105.29-.226.574-.367.848a8.185 8.185 0 0 1-.703 1.675 9.04 9.04 0 0 1-3.586 3.582c-.531.29-1.09.524-1.672.696a9.457 9.457 0 0 1-1.683.34c-.317.082-.64.144-.969.191h-55.77c-5.05 0-9.144 4.094-9.144 9.14v36.575c0 5.047 4.094 9.14 9.144 9.14zm-137.142-36.57h118.856a9.144 9.144 0 0 1 9.144 9.144c0 5.047-4.093 9.14-9.144 9.14H137.148c-5.05 0-9.144-4.093-9.144-9.14a9.144 9.144 0 0 1 9.144-9.145zm-45.714 0h9.144c5.047 0 9.14 4.093 9.14 9.144 0 5.047-4.093 9.14-9.14 9.14h-9.144c-5.051 0-9.145-4.093-9.145-9.14a9.144 9.144 0 0 1 9.145-9.145zm0 0M330.977 274.48c.238 0 .402.192.628.254 2.454-.226 4.922-.402 7.426-.402h20.005c4.784.012 9.526.848 14.026 2.477.915.34 1.762.824 2.649 1.218a122.458 122.458 0 0 0-5.11-22.035c-7.413-21.664-27.699-36.285-50.597-36.472h-.156c-5.871-.02-11.739.304-17.57.98-1.18 12.652-1.602 47.918 28.699 53.98zm0 0M347.434 207.086V64.012a9.144 9.144 0 0 0-9.145-9.145h-36.57v18.285h9.144c10.098 0 18.285 8.188 18.285 18.285v110.63a73.036 73.036 0 0 1 18.286 5.019zm0 0" class="active-path" data-old_color="#60ad5e" data-original="#000000"/>
  <path fill="#60ad5e" d="M36.578 493.723c-10.101 0-18.289-8.184-18.289-18.286v-384c0-10.097 8.188-18.285 18.29-18.285h9.14V54.867H9.149a9.144 9.144 0 0 0-9.145 9.145v438.855a9.144 9.144 0 0 0 9.144 9.145H314.52a122.225 122.225 0 0 1-22.344-18.29zm0 0" class="active-path" data-old_color="#60ad5e" data-original="#000000"/>
  <path fill="#60ad5e" d="M305.027 282.16c-21.765-17.566-23.402-50.89-20.187-69.7.844-3.757 2.406-10.327 26.023-11.17V91.436h-10.828a27.422 27.422 0 0 1-25.746 18.286H73.15a27.422 27.422 0 0 1-25.747-18.286H36.578v384h241.094a133.052 133.052 0 0 1-21.668-73.14v-39.59c-.43-34.02 18.61-65.3 49.023-80.547zM146.29 164.582h128c5.05 0 9.145 4.094 9.145 9.14a9.144 9.144 0 0 1-9.145 9.145h-128c-5.047 0-9.14-4.094-9.14-9.144 0-5.047 4.093-9.141 9.14-9.141zm-27.426 265.14c0 10.102-8.187 18.29-18.285 18.29h-27.43c-10.097 0-18.285-8.188-18.285-18.29v-27.425c0-10.102 8.188-18.285 18.285-18.285h27.43c10.098 0 18.285 8.183 18.285 18.285zm0-82.285c0 10.102-8.187 18.286-18.285 18.286h-27.43c-10.097 0-18.285-8.184-18.285-18.285v-27.426c0-10.102 8.188-18.29 18.285-18.29h27.43c10.098 0 18.285 8.188 18.285 18.29zm0-82.285c0 10.098-8.187 18.285-18.285 18.285h-27.43c-10.097 0-18.285-8.187-18.285-18.285v-27.43c0-10.097 8.188-18.285 18.285-18.285h27.43c10.098 0 18.285 8.188 18.285 18.286zm0-82.285c0 10.098-8.187 18.285-18.285 18.285h-27.43c-10.097 0-18.285-8.187-18.285-18.285v-27.43c0-10.097 8.188-18.285 18.285-18.285h27.43c10.098 0 18.285 8.188 18.285 18.285zm109.715 246.856H146.29c-5.047 0-9.14-4.09-9.14-9.141s4.093-9.145 9.14-9.145h82.29c5.046 0 9.14 4.094 9.14 9.145s-4.094 9.14-9.14 9.14zm0-82.286H146.29c-5.047 0-9.14-4.093-9.14-9.14 0-5.05 4.093-9.145 9.14-9.145h82.29c5.046 0 9.14 4.094 9.14 9.145 0 5.047-4.094 9.14-9.14 9.14zm18.285-82.285H146.29c-5.047 0-9.14-4.093-9.14-9.14 0-5.051 4.093-9.145 9.14-9.145h100.574c5.047 0 9.14 4.094 9.14 9.145 0 5.047-4.093 9.14-9.14 9.14zm0 0" class="active-path" data-old_color="#60ad5e" data-original="#000000"/>
  <path fill="#60ad5e" d="M447.3 292.582h-20.187c-2.484.031-4.949.438-7.312 1.195l-.442.13a27.37 27.37 0 0 0-17.07 26.187l-.52 1.05c-1.828-26.843 1.07-82.726 50.864-112.12a9.14 9.14 0 0 0 3.031-12.403 9.138 9.138 0 0 0-12.32-3.34c-53.031 31.297-60.664 87.508-60.07 120.547a26.616 26.616 0 0 0-16.458-19.855 23.343 23.343 0 0 0-7.671-1.371h-20.149c-35.676-.02-64.707 31.457-64.707 70.105v39.59c0 60.488 45.66 109.715 101.77 109.715h34.175c56.11 0 101.77-49.207 101.77-109.715v-39.59c0-38.648-29.027-70.125-64.703-70.125zm-115.198 36.04c-1.016.401-21.239 8.081-21.239 37.1 0 5.051-4.093 9.145-9.144 9.145s-9.14-4.094-9.14-9.144c0-42.668 32.3-53.942 33.679-54.391a9.14 9.14 0 0 1 8.969 1.797 9.148 9.148 0 0 1-3.105 15.531zm51.902-1.18c.121 1.261.238 2.433.36 3.53a8.784 8.784 0 0 1-.36-1.82zm0 0M73.148 402.297h27.438v27.426H73.148zm0 0" class="active-path" data-old_color="#60ad5e" data-original="#000000"/>
</svg>
